# xmcd
#
# Track frame offsets:
#	150
#	15530
#	29295
#	37429
#	59743
#	68142
#	83426
#	92716
#	104029
#	126750
#	138703
#	162066
#	177394
#	194351
#	215292
#	222771
#	233755
#
# Disc length: 3219 seconds
#
# Revision: 4
# Processed by: cddbd v1.5.2PL0 Copyright (c) Steve Scherf et al.
# Submitted via: EZCDAudioConverter 8.0.2.1
#
DISCID=f60c9111
DTITLE=雪村 - 雪村音乐评书之全是高科技
DYEAR=2003
DGENRE=
TTITLE0=刘鹏 - 东北人都是活雷锋
TTITLE1=雪村 - 臭球
TTITLE2=雪村 - 山东出好汉
TTITLE3=雪村 - 办公室
TTITLE4=雪村 - 全是高科技
TTITLE5=雪村 - 华容道
TTITLE6=雪村 - 我要回唐山
TTITLE7=雪村 - 夜色朦胧
TTITLE8=张德生 - 爱情麻雀&阿莲
TTITLE9=雪村 - 囚歌
TTITLE10=王宝&正午阳光 - 我开始摇滚了
TTITLE11=雪村 - 爆肚孙
TTITLE12=刘鹏 - 有了
TTITLE13=杨漫 - 决定
TTITLE14=雪村 - 山东出好汉(伴奏)
TTITLE15=雪村 - 臭球(伴奏)
TTITLE16=雪村 - 我要回唐山(伴奏)
EXTD=
EXTT0=
EXTT1=
EXTT2=
EXTT3=
EXTT4=
EXTT5=
EXTT6=
EXTT7=
EXTT8=
EXTT9=
EXTT10=
EXTT11=
EXTT12=
EXTT13=
EXTT14=
EXTT15=
EXTT16=
PLAYORDER=
